<svg width="37" height="22" viewBox="0 0 37 22" fill="none" xmlns="http://www.w3.org/2000/svg">
<path d="M33.6804 8.51642C33.501 8.81663 33.391 9.1528 33.3584 9.50055C33.2968 9.92784 33.1942 10.3483 33.0519 10.756C32.8385 11.3336 32.4687 11.8412 31.9835 12.2227C31.4093 10.7157 30.575 9.32022 29.5181 8.09915C30.1057 7.87931 30.742 7.82105 31.3601 7.93048C31.798 8.01085 32.2269 8.13365 32.6407 8.29715C32.9676 8.44248 33.3216 8.51745 33.6796 8.51715L33.6804 8.51642Z" fill="#1A120B"/>
<path d="M27.2509 2.28748C27.2487 2.63714 27.3242 2.98295 27.4719 3.30021C27.6405 3.69858 27.7674 4.11314 27.8507 4.53734C27.9629 5.13892 27.9026 5.75979 27.6768 6.32888C26.4036 5.2988 24.9641 4.49118 23.4194 3.94041C23.8194 3.46266 24.3434 3.10324 24.9343 2.90128C25.3563 2.75953 25.7915 2.66004 26.2334 2.60428C26.5883 2.5692 26.9322 2.46161 27.2435 2.28821L27.2509 2.28748Z" fill="#1A120B"/>
<path d="M32.665 14.6478C33.2791 14.7381 33.8575 14.9914 34.3391 15.3812C34.6837 15.6698 34.9971 15.9935 35.2741 16.347C35.4742 16.6292 35.7324 16.8657 36.0316 17.0407H32.8632C32.8676 16.2388 32.8012 15.4382 32.665 14.6478Z" fill="#1A120B"/>
<path d="M9.65796 2.28748C9.97049 2.46157 10.316 2.56896 10.6726 2.60281C11.1145 2.65847 11.5497 2.75822 11.9716 2.90054C12.5628 3.10203 13.0869 3.46153 13.4865 3.93968C11.9408 4.48874 10.5001 5.29541 9.22618 6.32521C8.99797 5.75671 8.93739 5.13523 9.05155 4.53368C9.13486 4.10923 9.26177 3.69443 9.43028 3.29581C9.58106 2.98049 9.66005 2.63594 9.66164 2.28674L9.65796 2.28748Z" fill="#1A120B"/>
<path d="M3.22485 8.51642C3.5829 8.51705 3.937 8.44206 4.26377 8.29642C4.67742 8.13315 5.10606 8.01035 5.54363 7.92975C6.16172 7.82032 6.79802 7.87858 7.38568 8.09842C6.33069 9.31965 5.4981 10.7149 4.92544 12.2212C4.44041 11.8397 4.07089 11.3321 3.85778 10.7546C3.7141 10.3462 3.61022 9.92504 3.54758 9.49688C3.51424 9.14927 3.4043 8.81325 3.22559 8.51275L3.22485 8.51642Z" fill="#1A120B"/>
<path d="M0.872803 17.0407C1.18067 16.8675 1.44792 16.631 1.65678 16.3469C1.92915 16.0031 2.2363 15.6881 2.57339 15.4068C3.05476 15.017 3.63282 14.7637 4.24671 14.6735C4.10911 15.46 4.04033 16.257 4.04113 17.0553L0.872803 17.0407Z" fill="#1A120B"/>
<path d="M18.4519 0.000244141C18.6327 0.302772 18.8767 0.563112 19.1674 0.763644C19.5276 1.02296 19.8591 1.31967 20.1562 1.64878C20.5606 2.11865 20.8234 2.69264 20.9144 3.30464C19.2846 3.03551 17.6215 3.03551 15.9917 3.30464C16.0907 2.69742 16.359 2.13005 16.7661 1.66711C17.0573 1.33907 17.3823 1.04239 17.7358 0.781977C18.0286 0.576134 18.273 0.309398 18.4519 0.000244141Z" fill="#1A120B"/>
<path d="M15.5231 17.0649H16.6099C16.7536 16.1769 16.4736 15.4905 15.5459 15.6518C14.762 15.7911 13.9249 16.5443 13.4136 17.0649H14.8445C15.0036 16.9659 15.3183 16.8486 15.4465 16.9366C15.4687 16.9502 15.4873 16.969 15.5007 16.9914C15.514 17.0137 15.5217 17.039 15.5231 17.0649Z" fill="#1A120B"/>
<path d="M20.4339 17.0612H21.7897C21.8865 15.49 21.5634 13.9212 20.8532 12.5146C20.5402 11.8947 20.0812 11.3593 19.5154 10.954C18.9497 10.5487 18.2938 10.2856 17.6038 10.187C15.4862 9.88557 13.3546 10.7524 11.5442 11.9968C9.58205 13.3491 7.9581 15.1876 6.55298 17.0568H8.34419C9.95709 14.8568 13.6692 11.4762 16.3991 11.4542C17.2676 11.4066 18.1238 11.6754 18.8078 12.2102C19.2808 12.6216 19.857 13.4144 19.8268 14.0436C19.8268 14.4286 19.4481 14.5466 19.1224 14.4102C18.8639 14.2853 18.647 14.0891 18.4976 13.8448C18.2101 13.4575 17.8218 13.1557 17.3746 12.972C16.9274 12.7882 16.4383 12.7294 15.96 12.802C14.7486 12.9641 13.2448 13.8742 12.2759 14.7043C11.4457 15.4221 10.6688 16.1988 9.9512 17.0282H11.8566C12.5395 16.1981 13.3544 15.4849 14.269 14.917C14.6058 14.7108 14.9637 14.5409 15.3366 14.4102C16.3291 14.0802 17.3135 14.1646 17.7527 15.3636C17.9245 15.8915 17.9749 16.4512 17.9 17.0011V17.0319H19.2101V16.9952C19.2101 16.5802 19.2101 16.3008 19.2374 15.8952C19.272 15.5286 19.3847 15.1619 19.7259 15.1311C20.4457 14.9844 20.4074 16.5376 20.4229 17.0378L20.4339 17.0612Z" fill="#1A120B"/>
<path d="M23.217 17.0612H24.5845C24.6733 15.4961 24.4901 13.9275 24.0429 12.4243C23.9485 12.1338 23.8388 11.8484 23.7143 11.5693C23.4236 10.9287 23.0409 10.3336 22.5781 9.80268C22.0514 9.19252 21.4336 8.66646 20.7464 8.24288C20.5379 8.11748 20.3257 8.00381 20.1061 7.89821C19.885 7.79495 19.6587 7.70292 19.4282 7.62248C16.7757 6.70508 14.0693 7.35775 11.8088 8.54795C11.3667 8.78261 10.9437 9.03366 10.54 9.30108C10.1347 9.56875 9.7523 9.84448 9.40378 10.1268C8.86986 10.5425 8.36381 10.9925 7.88888 11.4739C7.78278 11.5803 7.68036 11.6939 7.58236 11.801C7.31342 12.0943 6.89712 12.5094 7.02164 12.9391C7.11596 13.2772 7.57057 13.1775 7.72604 13.0601C7.98264 12.9134 8.22381 12.7414 8.44592 12.5468C8.75243 12.2931 9.04422 12.0217 9.35073 11.7643C10.4887 10.7922 11.7649 9.993 13.138 9.39275C13.4143 9.27541 13.6906 9.17275 13.9632 9.07301C14.2359 8.97328 14.5122 8.90068 14.7811 8.83101C17.1389 8.23995 19.7045 8.62568 21.3292 10.4832C22.909 12.2747 23.1963 14.6757 23.2229 17.059L23.217 17.0612ZM6.24356 15.0335C6.40817 14.8796 6.55996 14.7126 6.69744 14.5341C6.7921 14.4401 6.85693 14.3205 6.88392 14.1902C6.9109 14.0598 6.89884 13.9244 6.84923 13.8008C6.81794 13.7321 6.77102 13.6716 6.71218 13.6241C6.65394 13.5791 6.58695 13.5466 6.51545 13.5287C6.40762 13.5104 6.29678 13.5227 6.19566 13.5642C6.09453 13.6058 6.0072 13.6748 5.94367 13.7634C5.68464 14.0611 5.50388 14.4182 5.41758 14.8025C5.40801 14.8672 5.40801 14.9329 5.41758 14.9976C5.42338 15.058 5.44142 15.1167 5.47064 15.1699C5.49196 15.2112 5.5246 15.2456 5.56478 15.269C5.60495 15.2925 5.651 15.3042 5.69758 15.3027H5.84494C5.99774 15.2472 6.13442 15.155 6.24282 15.0343L6.24356 15.0335Z" fill="#1A120B"/>
<path d="M26.6256 17.0612C26.7327 17.0635 26.8385 17.0375 26.9323 16.986C27.0261 16.9345 27.1046 16.8593 27.1598 16.7679C27.1901 16.7169 27.2148 16.6628 27.2335 16.6066C27.2533 16.5381 27.2661 16.4678 27.2718 16.3968C27.3808 12.7258 26.2152 9.66703 24.242 7.58583C23.8596 7.18514 23.4441 6.81718 22.9997 6.48583C22.5563 6.16043 22.0854 5.87385 21.5924 5.6293C19.5799 4.68041 17.3186 4.38514 15.1282 4.78523C14.7724 4.85123 14.4194 4.9319 14.0709 5.0309C12.1487 5.60757 10.3993 6.64766 8.978 8.05883C8.69727 8.33823 8.42833 8.62423 8.17487 8.92563C8.04961 9.07597 7.92877 9.2263 7.79614 9.38103C8.7924 8.54246 9.87606 7.81254 11.0286 7.20377C11.2857 7.07177 11.5392 6.9471 11.7853 6.8371C12.0314 6.7271 12.3011 6.6127 12.5656 6.5137C13.5228 6.14525 14.523 5.89885 15.5423 5.78037C16.5359 5.67305 17.5394 5.69771 18.5265 5.8537C19.224 5.95963 19.9074 6.14313 20.5638 6.40077C20.689 6.44843 20.8062 6.50343 20.9425 6.5599C21.0611 6.60981 21.1763 6.66738 21.2873 6.73223C23.4978 7.90557 25.0363 10.3197 25.7142 13.0389C25.9885 14.1114 26.1235 15.2146 26.1157 16.3213V16.3506C26.1095 16.4745 26.133 16.5982 26.1842 16.7112C26.2355 16.8243 26.313 16.9237 26.4104 17.0011C26.4445 17.0217 26.4812 17.0378 26.5195 17.0488C26.561 17.0546 26.6032 17.0546 26.6448 17.0488L26.6256 17.0612Z" fill="#1A120B"/>
<path d="M22.6216 4.78821C28.0859 6.54087 31.784 11.4821 31.8083 17.0613H29.1764C29.3502 12.0643 27.1007 7.55214 22.6187 4.78821H22.6216Z" fill="#1A120B"/>
<path d="M7.23366 21.0549H6.1719L5.91107 21.954H5.06299L6.19696 18.5073H7.26977L8.40373 21.954H7.51955L7.23366 21.0549ZM6.28906 20.4741H7.10472C6.89325 19.7987 6.75326 19.3397 6.68915 19.0867L6.52337 19.7467L6.30232 20.48L6.28906 20.4741ZM11.1329 21.0549H10.0712L9.81033 21.954H8.96003L10.094 18.5073H11.1668L12.3008 21.954H11.424L11.1329 21.0549ZM10.192 20.4741H11.0084C10.7925 19.7987 10.6569 19.3397 10.5928 19.0867L10.4263 19.7467L10.2053 20.48L10.192 20.4741ZM13.1172 21.9408V18.5579C13.4927 18.5042 13.8717 18.4782 14.2511 18.4802C14.8312 18.427 15.4104 18.5906 15.8758 18.9393C16.0412 19.0947 16.1712 19.2836 16.2573 19.4931C16.3433 19.7027 16.3833 19.9282 16.3747 20.1544C16.389 20.4083 16.3459 20.6621 16.2485 20.8972C16.151 21.1323 16.0018 21.3426 15.8117 21.5125C15.307 21.8742 14.6887 22.0436 14.0691 21.9899C13.7511 21.9919 13.4332 21.9747 13.1172 21.9386V21.9408ZM13.9336 19.1211V21.3644C14.0316 21.3732 14.1303 21.3732 14.2283 21.3644C14.5697 21.3865 14.9064 21.2756 15.167 21.0549C15.2816 20.9382 15.3702 20.7989 15.427 20.6459C15.4839 20.4929 15.5078 20.3297 15.4971 20.1669C15.508 20.018 15.4867 19.8686 15.4345 19.7287C15.3824 19.5888 15.3007 19.4616 15.195 19.3558C14.9499 19.1562 14.6379 19.0563 14.3219 19.0764C14.1953 19.0741 14.0689 19.0852 13.9446 19.1094L13.9336 19.1211ZM17.236 18.5117H18.0465V19.8369H19.4406V18.5103H20.257V21.9569H19.4406V20.5233H18.0487V21.954H17.2382L17.236 18.5117ZM23.2138 21.0564H22.1521L21.8876 21.9555H21.0402L22.1734 18.5088H23.247L24.3994 21.9555H23.5152L23.2241 21.0564H23.2138ZM22.2729 20.4763H23.0893C22.8734 19.8002 22.7334 19.3419 22.6737 19.0881L22.5035 19.7481L22.2825 20.4815L22.2729 20.4763ZM27.1168 21.0564H26.0557L25.7912 21.9555H24.9431L26.0771 18.5088H27.1499L28.3023 21.9555H27.4181L27.1315 21.0564H27.1168ZM26.1766 20.4763H26.9871C26.7756 19.8002 26.6356 19.3419 26.5715 19.0881L26.4013 19.7481L26.1803 20.4815L26.1766 20.4763ZM29.0973 21.943V18.5579C29.4614 18.5012 29.8297 18.4751 30.1982 18.4802C30.6022 18.4475 31.0068 18.5372 31.3586 18.7376C31.4732 18.8217 31.5652 18.9326 31.6264 19.0605C31.6875 19.1884 31.7161 19.3294 31.7094 19.4709C31.7104 19.6585 31.6479 19.8409 31.5318 19.9887C31.4159 20.1422 31.255 20.2562 31.0713 20.315C31.1969 20.3747 31.3062 20.4637 31.3897 20.5746C31.4733 20.6854 31.5286 20.8148 31.551 20.9515C31.7332 21.568 31.8314 21.8948 31.8457 21.932H31.0131C30.9006 21.6749 30.8156 21.4067 30.7596 21.1319C30.7349 20.9729 30.6657 20.8239 30.5599 20.7022C30.4467 20.6096 30.3014 20.5649 30.1554 20.5775H29.9034V21.954L29.0973 21.943ZM29.9034 19.0793V20.0268H30.2402C30.4149 20.0416 30.5894 19.9963 30.7346 19.8985C30.7918 19.8565 30.8377 19.801 30.868 19.737C30.8984 19.673 30.9123 19.6025 30.9085 19.5318C30.9147 19.4624 30.9035 19.3925 30.8759 19.3285C30.8482 19.2645 30.805 19.2083 30.75 19.1651C30.6181 19.0754 30.4601 19.0316 30.3006 19.0405C30.174 19.0375 30.0475 19.0463 29.9226 19.0669L29.9034 19.0793Z" fill="#1A120B"/>
</svg>
