<svg width="17" height="22" viewBox="0 0 17 22" fill="none" xmlns="http://www.w3.org/2000/svg">
<path d="M3.10402 0.512473L4.38163 0.128203C5.08152 -0.0828457 5.83429 -0.0320406 6.49946 0.271138C7.16464 0.574316 7.69679 1.10916 7.99662 1.77586L8.98411 3.97199C9.2419 4.54544 9.31368 5.18521 9.1894 5.80153C9.06511 6.41785 8.75099 6.9798 8.29111 7.40853L6.65441 8.93356C6.6066 8.97812 6.57631 9.03831 6.56902 9.10325C6.52084 9.53788 6.81534 10.3842 7.4952 11.561C7.98786 12.4161 8.43563 13.0171 8.81552 13.3532C9.08155 13.5886 9.22715 13.639 9.28956 13.6214L11.4901 12.9481C12.091 12.7643 12.7344 12.7732 13.3301 12.9734C13.9257 13.1737 14.4438 13.5553 14.8117 14.0648L16.213 16.0092C16.6396 16.6003 16.8372 17.3262 16.7692 18.052C16.7011 18.7778 16.372 19.4543 15.8429 19.9559L14.8719 20.8755C14.3571 21.363 13.7248 21.7089 13.0366 21.8794C12.3484 22.05 11.6278 22.0394 10.9449 21.8487C7.92983 21.0069 5.22681 18.4626 2.80514 14.2685C0.381288 10.0689 -0.470455 6.45168 0.315601 3.41584C0.492054 2.73306 0.841411 2.10725 1.33 1.59872C1.81859 1.09019 2.42884 0.716085 3.10402 0.512473ZM3.57916 2.08568C3.17396 2.20754 2.80699 2.43171 2.51361 2.7366C2.22022 3.04149 2.01032 3.41681 1.90413 3.82639C1.24507 6.37943 1.99938 9.58605 4.22836 13.4474C6.45516 17.3032 8.85164 19.5595 11.3883 20.2679C11.798 20.3822 12.2304 20.3884 12.6433 20.2859C13.0561 20.1835 13.4354 19.9758 13.7442 19.6833L14.7142 18.7636C14.9549 18.5357 15.1046 18.2282 15.1356 17.8981C15.1666 17.5681 15.0768 17.2381 14.8828 16.9693L13.4815 15.026C13.3143 14.7942 13.0786 14.6205 12.8077 14.5294C12.5367 14.4383 12.244 14.4343 11.9707 14.5181L9.76469 15.1935C8.4838 15.5745 7.32223 14.5443 6.07417 12.3821C5.23119 10.9261 4.83925 9.79844 4.93779 8.92152C4.98815 8.46609 5.20053 8.04569 5.53444 7.73258L7.17115 6.20755C7.38009 6.01256 7.52275 5.75705 7.5791 5.47687C7.63545 5.19669 7.60267 4.90589 7.48535 4.64529L6.49895 2.44915C6.36265 2.1461 6.12074 1.903 5.81836 1.76521C5.51599 1.62741 5.17381 1.60435 4.85568 1.70032L3.57916 2.08568Z" fill="#1A120B"/>
</svg>
