<svg width="21" height="20" viewBox="0 0 21 20" fill="none" xmlns="http://www.w3.org/2000/svg">
<path d="M10.1931 8.40873C12.5151 8.40873 14.3975 6.52637 14.3975 4.20436C14.3975 1.88236 12.5151 0 10.1931 0C7.87113 0 5.98877 1.88236 5.98877 4.20436C5.98877 6.52637 7.87113 8.40873 10.1931 8.40873Z" fill="#1A120B"/>
<path d="M7.94141 16.095H12.4972V17.0061H7.94141V16.095Z" fill="#1A120B"/>
<path d="M7.95449 17.3967V19.3492C7.95449 19.5218 8.02306 19.6873 8.14511 19.8094C8.26717 19.9314 8.43271 20 8.60532 20H19.6694C19.842 20 20.0076 19.9314 20.1296 19.8094C20.2517 19.6873 20.3203 19.5218 20.3203 19.3492V12.8409C20.3203 12.6682 20.2517 12.5027 20.1296 12.3806C20.0076 12.2586 19.842 12.19 19.6694 12.19H15.1136V11.2333C15.1136 11.0607 15.0451 10.8951 14.923 10.7731C14.8009 10.651 14.6354 10.5825 14.4628 10.5825C14.2902 10.5825 14.1246 10.651 14.0026 10.7731C13.8805 10.8951 13.812 11.0607 13.812 11.2333V12.19H12.5103V9.86005C11.4043 9.67942 10.2856 9.58801 9.16503 9.5867C6.6937 9.57619 4.25006 10.1071 2.0059 11.1422C1.63654 11.3165 1.32494 11.5931 1.10806 11.9392C0.891188 12.2852 0.778142 12.6863 0.782339 13.0947V17.3967H7.95449ZM19.0186 18.6983H9.25615V13.4917H13.812V13.765C13.812 13.9376 13.8805 14.1032 14.0026 14.2252C14.1246 14.3473 14.2902 14.4159 14.4628 14.4159C14.6354 14.4159 14.8009 14.3473 14.923 14.2252C15.0451 14.1032 15.1136 13.9376 15.1136 13.765V13.4917H19.0186V18.6983Z" fill="#1A120B"/>
</svg>
