<svg width="24" height="24" viewBox="0 0 24 24" fill="none" xmlns="http://www.w3.org/2000/svg">
<path d="M3 6.96997L6 3.96997H9C9 4.36394 9.0776 4.75404 9.22836 5.11802C9.37913 5.482 9.6001 5.81271 9.87868 6.09129C10.1573 6.36987 10.488 6.59084 10.8519 6.74161C11.2159 6.89237 11.606 6.96997 12 6.96997C12.394 6.96997 12.7841 6.89237 13.1481 6.74161C13.512 6.59084 13.8427 6.36987 14.1213 6.09129C14.3999 5.81271 14.6209 5.482 14.7716 5.11802C14.9224 4.75404 15 4.36394 15 3.96997H18L21 6.96997L20.5785 11.1852C20.542 11.5501 20.1382 11.7529 19.8237 11.5642L18 10.47V17.97C18 19.0746 17.1046 19.97 16 19.97H8C6.89543 19.97 6 19.0746 6 17.97V10.47L4.17629 11.5642C3.86184 11.7529 3.45801 11.5501 3.42152 11.1852L3 6.96997Z" fill="#D9D9D9"/>
</svg>
