<svg width="24" height="24" viewBox="0 0 24 24" fill="none" xmlns="http://www.w3.org/2000/svg">
<path d="M23.7611 15.6797L22.4019 14.3205L23.7672 12.9553C23.9162 12.8063 24 12.6041 24 12.3933C24 12.1826 23.9162 11.9805 23.7672 11.8314L22.4019 10.4661L23.6902 9.17781C24.0006 8.86748 24.0006 8.36428 23.6902 8.05387L20.7994 5.16315C20.489 4.85289 19.986 4.85289 19.6755 5.16315L18.3872 6.45143L17.5825 5.64672L18.6595 4.56958C18.9699 4.25925 18.9699 3.75605 18.6595 3.44564L15.7687 0.554918C15.6196 0.405912 15.4176 0.32215 15.2068 0.32215C14.996 0.32215 14.7939 0.405912 14.6449 0.554918L13.3567 1.84321L11.9914 0.477991C11.681 0.16774 11.1779 0.16774 10.8674 0.477991L9.50221 1.84321L8.10425 0.44517C7.95516 0.296164 7.75307 0.212402 7.54232 0.212402C7.33156 0.212402 7.12939 0.296164 6.98039 0.44517L5.61517 1.81046L4.35962 0.554918C4.04921 0.244667 3.54617 0.244667 3.23568 0.554918L0.366337 3.42426C0.0560066 3.73459 0.0560066 4.2378 0.366337 4.54821L1.6218 5.80367L0.232747 7.19281C-0.0775825 7.50314 -0.0775825 8.00634 0.232747 8.31675L1.6307 9.71471L0.267873 11.0775C-0.0424567 11.3878 -0.0424567 11.891 0.267873 12.2014L1.63317 13.5667L0.34488 14.8549C0.0345497 15.1652 0.0345497 15.6684 0.34488 15.9789L3.23568 18.8697C3.54609 19.1799 4.04914 19.1799 4.35962 18.8697L5.64791 17.5814L6.4527 18.3861L5.37565 19.4631C5.06532 19.7735 5.06532 20.2767 5.37565 20.5871L8.26645 23.4779C8.57686 23.7881 9.0799 23.7881 9.39039 23.4779L10.6787 22.1896L12.0439 23.5548C12.1991 23.7099 12.4025 23.7876 12.6058 23.7876C12.8092 23.7876 13.0126 23.7099 13.1678 23.5548L14.5305 22.1921L15.8898 23.5513C16.2002 23.8616 16.7032 23.8616 17.0137 23.5513L18.4028 22.1622L19.7208 23.4802C20.0312 23.7904 20.5342 23.7905 20.8447 23.4802L23.7141 20.6109C23.8632 20.4619 23.9469 20.2597 23.9469 20.049C23.9469 19.8382 23.8632 19.6361 23.7141 19.4871L22.3961 18.169L23.7613 16.8038C24.0715 16.4933 24.0715 15.9901 23.7611 15.6797ZM20.2375 6.84902L22.0043 8.61588L20.9652 9.65503H19.1644V7.9221L20.2375 6.84902ZM8.10059 17.3638L6.98444 16.2476L8.13326 15.0988H9.86626V17.3638H8.10059ZM13.7206 9.65503H11.4557V7.85654L12.573 6.73919L13.7206 7.8869V9.65503ZM13.7206 11.2444V13.5094H11.4557V11.2444H13.7206ZM9.86626 9.65503H8.14343L7.08282 8.59442L8.8283 6.84894L9.86626 7.8869V9.65503ZM8.06785 11.2444H9.86626V13.5094H8.09567L6.94915 12.363L8.06785 11.2444ZM11.4557 15.0988H13.7206V17.3638H11.4557V15.0988ZM15.31 15.0988H17.575V17.3638H15.31V15.0988ZM15.31 13.5094V11.2444H17.575V13.5094H15.31ZM15.31 9.65503V7.9221L16.4601 6.77202L17.575 7.88698V9.65503H15.31ZM8.8283 21.792L7.06145 20.0251L8.13334 18.9533H9.86626V20.7541L8.8283 21.792ZM12.6057 21.8689L11.4556 20.7188V18.9532H13.7206V20.754L12.6057 21.8689ZM16.4516 21.8654L15.31 20.7238V18.9533H17.575V20.742L16.4516 21.8654ZM20.2826 21.7943L19.1644 20.676V18.9532H20.9325L22.0281 20.0488L20.2826 21.7943ZM20.9532 17.3638H19.1643V15.0988H20.9324L22.0753 16.2417L20.9532 17.3638ZM20.9652 13.5094H19.1644V11.2444H20.9325L22.0814 12.3933L20.9652 13.5094Z" fill="#D9D9D9"/>
</svg>
