<svg width="24" height="24" viewBox="0 0 24 24" fill="none" xmlns="http://www.w3.org/2000/svg">
<path d="M3.57102 4L3.01289 7.00394C2.77231 8.30579 2.96803 9.64722 3.57102 10.8215H5.81539V4H3.57102ZM6.58947 4V9.08426H6.71701C6.9897 9.08426 7.20961 8.85995 7.20961 8.58727V4H6.58947ZM7.98808 4V8.58727C7.98808 9.28657 7.42072 9.85394 6.71701 9.85394H6.58947V13.4472H7.24479V10.8215H8.10683C8.10683 10.8215 8.44109 10.1486 8.70498 9.60324C8.91169 9.19861 9.32512 8.93912 9.78252 8.93912H13.3098C13.9696 8.93912 14.5061 9.4713 14.5061 10.131V14.1553H2L2.46488 17.1681H20.8747L21.3365 14.3928L20.4085 4H7.98808ZM21.6267 5.02917C21.4112 5.04676 21.2529 5.23588 21.2749 5.44699L21.464 7.53171C21.4816 7.74282 21.6707 7.90116 21.8818 7.88357C22.0973 7.86597 22.2513 7.67245 22.2337 7.46134L22.049 5.38102C22.0314 5.1831 21.8642 5.02917 21.6663 5.02917H21.6267ZM17.8091 5.03356C18.7635 5.03356 19.5332 5.80324 19.5332 6.75764C19.5332 7.71204 18.7635 8.48171 17.8091 8.48171C16.8547 8.48171 16.0851 7.71204 16.0851 6.75764C16.0851 5.80324 16.8547 5.03356 17.8091 5.03356ZM17.8091 5.80324C17.2858 5.80324 16.8547 6.23426 16.8547 6.75764C16.8547 7.28542 17.2858 7.71204 17.8091 7.71204C18.3325 7.71204 18.7635 7.28542 18.7635 6.75764C18.7635 6.23426 18.3325 5.80324 17.8091 5.80324ZM17.8091 9.75718C18.9791 9.75718 19.9291 10.7116 19.9291 11.8771C19.9291 13.047 18.9791 13.997 17.8091 13.997C16.6392 13.997 15.6892 13.047 15.6892 11.8771C15.6892 10.7116 16.6392 9.75718 17.8091 9.75718ZM17.8091 10.5312C17.0659 10.5312 16.4633 11.1338 16.4633 11.8771C16.4633 12.6204 17.0659 13.2185 17.8091 13.2185C18.5524 13.2185 19.1506 12.6204 19.1506 11.8771C19.1506 11.1338 18.5524 10.5312 17.8091 10.5312ZM4.9362 11.3889V12.163H5.81979V11.3889H4.9362ZM2.46488 18.0345V19.2H20.8659V18.0345H2.46488Z" fill="#D9D9D9"/>
</svg>
