<svg width="24" height="24" viewBox="0 0 24 24" fill="none" xmlns="http://www.w3.org/2000/svg">
<circle cx="12" cy="12" r="11" fill="#D9D9D9"/>
<path d="M11.4229 8.55544C11.4229 9.70848 10.5273 10.6109 9.46157 10.6109C8.39588 10.6109 7.50024 9.70848 7.50024 8.55544C7.50024 7.4024 8.39588 6.5 9.46157 6.5C10.5273 6.5 11.4229 7.4024 11.4229 8.55544Z" stroke="#1A120B"/>
<path d="M17.3299 8.55544C17.3299 9.70848 16.4342 10.6109 15.3685 10.6109C14.3029 10.6109 13.4072 9.70848 13.4072 8.55544C13.4072 7.4024 14.3029 6.5 15.3685 6.5C16.4342 6.5 17.3299 7.4024 17.3299 8.55544Z" stroke="#1A120B"/>
<path d="M17.3299 14.6885C17.3299 15.8415 16.4342 16.7439 15.3685 16.7439C14.3029 16.7439 13.4072 15.8415 13.4072 14.6885C13.4072 13.5355 14.3029 12.6331 15.3685 12.6331C16.4342 12.6331 17.3299 13.5355 17.3299 14.6885Z" stroke="#1A120B"/>
<path d="M11.4226 14.6885C11.4226 15.8415 10.527 16.7439 9.46132 16.7439C8.39563 16.7439 7.5 15.8415 7.5 14.6885C7.5 13.5355 8.39563 12.6331 9.46132 12.6331C10.527 12.6331 11.4226 13.5355 11.4226 14.6885Z" stroke="#1A120B"/>
</svg>
