<svg width="25" height="24" viewBox="0 0 25 24" fill="none" xmlns="http://www.w3.org/2000/svg">
<path d="M12.9046 21C10.6107 21 8.61203 20.2377 6.90856 18.713C5.20508 17.1883 4.22834 15.284 3.97833 13H6.02291C6.25562 14.7333 7.02458 16.1667 8.32978 17.3C9.63498 18.4333 11.1599 19 12.9046 19C14.8495 19 16.4994 18.321 17.8545 16.963C19.2096 15.605 19.8868 13.9507 19.8861 12C19.8861 10.05 19.2089 8.396 17.8545 7.038C16.5001 5.68 14.8501 5.00067 12.9046 5C11.7577 5 10.6855 5.26667 9.68818 5.8C8.69082 6.33333 7.85139 7.06667 7.16986 8H9.91258V10H3.92847V4H5.92317V6.35C6.77092 5.28333 7.80584 4.45833 9.02793 3.875C10.25 3.29167 11.5423 3 12.9046 3C14.1513 3 15.3192 3.23767 16.4083 3.713C17.4974 4.18833 18.4449 4.82967 19.2508 5.637C20.0567 6.44567 20.6966 7.39567 21.1707 8.487C21.6448 9.57833 21.8815 10.7493 21.8808 12C21.8808 13.25 21.6441 14.421 21.1707 15.513C20.6973 16.605 20.0573 17.555 19.2508 18.363C18.4443 19.171 17.4968 19.8127 16.4083 20.288C15.3199 20.7633 14.152 21.0007 12.9046 21ZM15.6972 16.2L11.9073 12.4V7H13.902V11.6L17.0935 14.8L15.6972 16.2Z" fill="white"/>
</svg>
