<svg width="24" height="24" viewBox="0 0 24 24" fill="none" xmlns="http://www.w3.org/2000/svg">
<path d="M7.27342 10.618C7.24652 10.6725 7.22127 10.7237 7.19823 10.7703H6.58984H6.39141V10.7035C7.24184 10.535 7.88203 9.78732 7.88203 8.88906V4.5H20.1622L21.1049 15.0575L20.6927 17.5344H1.92423L1.58307 15.3234H14.3289H14.8289V14.8234V10.5344C14.8289 9.55271 14.0308 8.76406 13.0539 8.76406H9.29453C8.61503 8.76406 8.00468 9.14964 7.70083 9.7444L7.70073 9.74435L7.69601 9.75409C7.55618 10.0431 7.39743 10.3664 7.27342 10.618ZM2.57121 7.29242L3.09003 4.5H4.56641V10.7703H2.98843C2.49994 9.6847 2.35318 8.4725 2.57116 7.29265C2.57118 7.29258 2.57119 7.2925 2.57121 7.29242ZM20.1867 6.93906C20.1867 5.64573 19.1425 4.60156 17.8492 4.60156C16.5559 4.60156 15.5117 5.64573 15.5117 6.93906C15.5117 8.23239 16.5559 9.27656 17.8492 9.27656C19.1425 9.27656 20.1867 8.23239 20.1867 6.93906ZM17.332 6.93906C17.332 6.65739 17.5675 6.42188 17.8492 6.42188C18.1309 6.42188 18.3664 6.65739 18.3664 6.93906C18.3664 7.22392 18.1324 7.45625 17.8492 7.45625C17.566 7.45625 17.332 7.22392 17.332 6.93906ZM20.6086 12.3953C20.6086 10.8777 19.3729 9.63594 17.8492 9.63594C16.3255 9.63594 15.0898 10.8777 15.0898 12.3953C15.0898 13.9183 16.3262 15.1547 17.8492 15.1547C19.3722 15.1547 20.6086 13.9183 20.6086 12.3953ZM16.9148 12.3953C16.9148 11.8793 17.3332 11.4609 17.8492 11.4609C18.3631 11.4609 18.7789 11.8771 18.7789 12.3953C18.7789 12.9114 18.3653 13.325 17.8492 13.325C17.331 13.325 16.9148 12.9092 16.9148 12.3953ZM20.607 19.7H1.99547V19.4578H20.607V19.7Z" stroke="#D9D9D9"/>
</svg>
