<svg width="24" height="24" viewBox="0 0 24 24" fill="none" xmlns="http://www.w3.org/2000/svg">
<path d="M20.0123 9.99979C20.0123 9.73457 19.9069 9.48022 19.7194 9.29268C19.5319 9.10514 19.2775 8.99979 19.0123 8.99979C18.7471 8.99979 18.4927 9.10514 18.3052 9.29268C18.1176 9.48022 18.0123 9.73457 18.0123 9.99979H20.0123ZM6.01229 9.99979C6.01229 9.73457 5.90693 9.48022 5.71939 9.29268C5.53186 9.10514 5.2775 8.99979 5.01229 8.99979C4.74707 8.99979 4.49272 9.10514 4.30518 9.29268C4.11765 9.48022 4.01229 9.73457 4.01229 9.99979H6.01229ZM20.3053 12.7068C20.4939 12.8889 20.7465 12.9897 21.0087 12.9875C21.2709 12.9852 21.5217 12.88 21.7071 12.6946C21.8925 12.5092 21.9977 12.2584 22 11.9962C22.0022 11.734 21.9014 11.4814 21.7193 11.2928L20.3053 12.7068ZM12.0123 2.99979L12.7193 2.29279C12.5318 2.10532 12.2775 2 12.0123 2C11.7471 2 11.4928 2.10532 11.3053 2.29279L12.0123 2.99979ZM2.30529 11.2928C2.20978 11.385 2.1336 11.4954 2.08119 11.6174C2.02878 11.7394 2.00119 11.8706 2.00004 12.0034C1.99888 12.1362 2.02419 12.2678 2.07447 12.3907C2.12475 12.5136 2.199 12.6253 2.29289 12.7192C2.38679 12.8131 2.49844 12.8873 2.62133 12.9376C2.74423 12.9879 2.87591 13.0132 3.00869 13.012C3.14147 13.0109 3.27269 12.9833 3.39469 12.9309C3.5167 12.8785 3.62704 12.8023 3.71929 12.7068L2.30529 11.2928ZM7.01229 21.9998H17.0123V19.9998H7.01229V21.9998ZM20.0123 18.9998V9.99979H18.0123V18.9998H20.0123ZM6.01229 18.9998V9.99979H4.01229V18.9998H6.01229ZM21.7193 11.2928L12.7193 2.29279L11.3053 3.70679L20.3053 12.7068L21.7193 11.2928ZM11.3053 2.29279L2.30529 11.2928L3.71929 12.7068L12.7193 3.70679L11.3053 2.29279ZM17.0123 21.9998C17.8079 21.9998 18.571 21.6837 19.1336 21.1211C19.6962 20.5585 20.0123 19.7954 20.0123 18.9998H18.0123C18.0123 19.265 17.9069 19.5194 17.7194 19.7069C17.5319 19.8944 17.2775 19.9998 17.0123 19.9998V21.9998ZM7.01229 19.9998C6.74707 19.9998 6.49272 19.8944 6.30518 19.7069C6.11765 19.5194 6.01229 19.265 6.01229 18.9998H4.01229C4.01229 19.7954 4.32836 20.5585 4.89097 21.1211C5.45358 21.6837 6.21664 21.9998 7.01229 21.9998V19.9998Z" fill="#D9D9D9"/>
</svg>
