<svg width="24" height="24" viewBox="0 0 24 24" fill="none" xmlns="http://www.w3.org/2000/svg">
<path d="M5.75 8.125C5.75 7.42881 6.02656 6.76113 6.51884 6.26884C7.01113 5.77656 7.67881 5.5 8.375 5.5C9.07119 5.5 9.73887 5.77656 10.2312 6.26884C10.7234 6.76113 11 7.42881 11 8.125C11 8.82119 10.7234 9.48887 10.2312 9.98116C9.73887 10.4734 9.07119 10.75 8.375 10.75C7.67881 10.75 7.01113 10.4734 6.51884 9.98116C6.02656 9.48887 5.75 8.82119 5.75 8.125ZM8.375 4C7.28098 4 6.23177 4.4346 5.45818 5.20818C4.6846 5.98177 4.25 7.03098 4.25 8.125C4.25 9.21902 4.6846 10.2682 5.45818 11.0418C6.23177 11.8154 7.28098 12.25 8.375 12.25C9.46902 12.25 10.5182 11.8154 11.2918 11.0418C12.0654 10.2682 12.5 9.21902 12.5 8.125C12.5 7.03098 12.0654 5.98177 11.2918 5.20818C10.5182 4.4346 9.46902 4 8.375 4ZM16.25 9.25C16.25 8.85218 16.408 8.47064 16.6893 8.18934C16.9706 7.90804 17.3522 7.75 17.75 7.75C18.1478 7.75 18.5294 7.90804 18.8107 8.18934C19.092 8.47064 19.25 8.85218 19.25 9.25C19.25 9.64782 19.092 10.0294 18.8107 10.3107C18.5294 10.592 18.1478 10.75 17.75 10.75C17.3522 10.75 16.9706 10.592 16.6893 10.3107C16.408 10.0294 16.25 9.64782 16.25 9.25ZM17.75 6.25C16.9544 6.25 16.1913 6.56607 15.6287 7.12868C15.0661 7.69129 14.75 8.45435 14.75 9.25C14.75 10.0456 15.0661 10.8087 15.6287 11.3713C16.1913 11.9339 16.9544 12.25 17.75 12.25C18.5456 12.25 19.3087 11.9339 19.8713 11.3713C20.4339 10.8087 20.75 10.0456 20.75 9.25C20.75 8.45435 20.4339 7.69129 19.8713 7.12868C19.3087 6.56607 18.5456 6.25 17.75 6.25ZM2 16C2 15.4033 2.23705 14.831 2.65901 14.409C3.08097 13.9871 3.65326 13.75 4.25 13.75H12.5C13.0967 13.75 13.669 13.9871 14.091 14.409C14.5129 14.831 14.75 15.4033 14.75 16V16.1695C14.7485 16.2395 14.7435 16.3093 14.735 16.3787C14.72 16.5085 14.6923 16.6847 14.6375 16.8932C14.4934 17.4433 14.2385 17.9581 13.8883 18.406C13.0107 19.5325 11.36 20.5 8.375 20.5C5.39 20.5 3.74 19.5325 2.86175 18.406C2.51128 17.9581 2.25606 17.4433 2.11175 16.8932C2.05446 16.6726 2.01781 16.4472 2.00225 16.2197C2.00152 16.203 2.00102 16.1863 2.00075 16.1695V16.1522L2 16.1462V16.1403V16ZM3.5 16.1335V16.1425C3.51039 16.2686 3.53172 16.3936 3.56375 16.516C3.63125 16.777 3.7685 17.1295 4.0445 17.4843C4.57325 18.1623 5.735 19 8.375 19C11.015 19 12.1775 18.1622 12.7055 17.485C12.9297 17.198 13.0931 16.8683 13.1855 16.516C13.2178 16.3936 13.2393 16.2686 13.25 16.1425L13.2507 16.1335V16C13.2507 15.8011 13.1717 15.6103 13.0311 15.4697C12.8904 15.329 12.6997 15.25 12.5007 15.25H4.25C4.05109 15.25 3.86032 15.329 3.71967 15.4697C3.57902 15.6103 3.5 15.8011 3.5 16V16.1335ZM15.1077 18.619C15.8052 18.856 16.673 19 17.75 19C20.1507 19 21.515 18.2852 22.2598 17.4062C22.622 16.9788 22.8073 16.5453 22.901 16.2123C22.9515 16.0337 22.9839 15.8505 22.9977 15.6655L22.9985 15.6385L22.9993 15.622V15.5935C22.9993 15.3514 22.9518 15.1117 22.8592 14.8881C22.7666 14.6644 22.6309 14.4612 22.4598 14.29C22.2887 14.1188 22.0855 13.983 21.8619 13.8903C21.6382 13.7977 21.3986 13.75 21.1565 13.75H15.0148C15.3898 14.1693 15.662 14.6823 15.791 15.25H21.1565C21.344 15.25 21.4955 15.3992 21.5 15.5845C21.4926 15.6591 21.4786 15.7329 21.458 15.805C21.4115 15.97 21.3155 16.201 21.1152 16.4373C20.735 16.8865 19.8493 17.5 17.75 17.5C16.8763 17.5 16.2132 17.3935 15.7092 17.2375C15.5758 17.7244 15.3733 18.1896 15.1077 18.619Z" fill="#D9D9D9"/>
</svg>
