<svg width="25" height="24" viewBox="0 0 25 24" fill="none" xmlns="http://www.w3.org/2000/svg">
<path d="M19.5322 9H18.7822V6.13763C18.7822 2.69588 16.2919 0 12.7545 0C9.20285 0 6.78223 2.75325 6.78223 6.13763V9H6.03223C4.37773 9 3.03223 10.3455 3.03223 12V21C3.03223 22.6545 4.37773 24 6.03223 24H19.5322C21.1867 24 22.5322 22.6545 22.5322 21V12C22.5322 10.3455 21.1867 9 19.5322 9ZM8.28223 6.13763C8.28223 3.58088 10.0297 1.5 12.7545 1.5C15.4511 1.5 17.2822 3.537 17.2822 6.13763V9H8.28223V6.13763ZM21.0322 21C21.0322 21.8269 20.3591 22.5 19.5322 22.5H6.03225C5.20538 22.5 4.53225 21.8269 4.53225 21V12C4.53225 11.1731 5.20538 10.5 6.03225 10.5H19.5322C20.3591 10.5 21.0322 11.1731 21.0322 12V21ZM12.7822 13.5C11.9539 13.5 11.2823 14.1716 11.2823 15C11.2823 15.5539 11.586 16.032 12.0323 16.2919V18.75C12.0323 19.164 12.3682 19.5 12.7822 19.5C13.1962 19.5 13.5322 19.164 13.5322 18.75V16.2919C13.9785 16.032 14.2822 15.5535 14.2822 15C14.2822 14.1716 13.6106 13.5 12.7822 13.5Z" fill="#1A120B"/>
</svg>
