<svg width="25" height="24" viewBox="0 0 25 24" fill="none" xmlns="http://www.w3.org/2000/svg">
<path d="M22.0392 10.962C22.5132 11.582 22.5132 12.419 22.0392 13.038C20.5462 14.987 16.9642 19 12.7822 19C8.60024 19 5.01824 14.987 3.52524 13.038C3.29462 12.7411 3.16943 12.3759 3.16943 12C3.16943 11.6241 3.29462 11.2589 3.52524 10.962C5.01824 9.013 8.60024 5 12.7822 5C16.9642 5 20.5462 9.013 22.0392 10.962Z" stroke="#1A120B" stroke-width="2" stroke-linecap="round" stroke-linejoin="round"/>
<path d="M12.7822 15C14.4391 15 15.7822 13.6569 15.7822 12C15.7822 10.3431 14.4391 9 12.7822 9C11.1254 9 9.78223 10.3431 9.78223 12C9.78223 13.6569 11.1254 15 12.7822 15Z" stroke="#1A120B" stroke-width="2" stroke-linecap="round" stroke-linejoin="round"/>
</svg>
