<svg width="24" height="24" viewBox="0 0 24 24" fill="none" xmlns="http://www.w3.org/2000/svg">
<path d="M9.3 23L8.9 19.64C8.68333 19.5525 8.47933 19.4475 8.288 19.325C8.09667 19.2025 7.909 19.0712 7.725 18.9312L4.75 20.2437L2 15.2562L4.575 13.2087C4.55833 13.0862 4.55 12.9683 4.55 12.8549V12.1461C4.55 12.032 4.55833 11.9137 4.575 11.7912L2 9.74375L4.75 4.75625L7.725 6.06875C7.90833 5.92875 8.1 5.7975 8.3 5.675C8.5 5.5525 8.7 5.4475 8.9 5.36L9.3 2H14.8L15.2 5.36C15.4167 5.4475 15.621 5.5525 15.813 5.675C16.005 5.7975 16.1923 5.92875 16.375 6.06875L19.35 4.75625L22.1 9.74375L19.525 11.7912C19.5417 11.9137 19.55 12.032 19.55 12.1461V12.8538C19.55 12.9679 19.5333 13.0862 19.5 13.2087L22.075 15.2562L19.325 20.2437L16.375 18.9312C16.1917 19.0712 16 19.2025 15.8 19.325C15.6 19.4475 15.4 19.5525 15.2 19.64L14.8 23H9.3ZM12.1 16.175C13.0667 16.175 13.8917 15.8162 14.575 15.0988C15.2583 14.3813 15.6 13.515 15.6 12.5C15.6 11.485 15.2583 10.6187 14.575 9.90125C13.8917 9.18375 13.0667 8.825 12.1 8.825C11.1167 8.825 10.2873 9.18375 9.612 9.90125C8.93667 10.6187 8.59933 11.485 8.6 12.5C8.6 13.515 8.93767 14.3813 9.613 15.0988C10.2883 15.8162 11.1173 16.175 12.1 16.175Z" fill="white"/>
</svg>
